<svg width="102" height="26" viewBox="0 0 102 26" fill="none" xmlns="http://www.w3.org/2000/svg">
<path fill-rule="evenodd" clip-rule="evenodd" d="M26.8009 9.36047H37.1269V11.2836H33.0667V22.0941H30.8341V11.2836H26.7919V9.36047H26.8009ZM36.6858 12.8741H38.5943V14.6534H38.6304C38.6934 14.4018 38.8104 14.1592 38.9815 13.9255C39.1525 13.6919 39.3596 13.4672 39.6026 13.2785C39.8457 13.0808 40.1158 12.9281 40.4129 12.8022C40.71 12.6854 41.0161 12.6225 41.3221 12.6225C41.5562 12.6225 41.7273 12.6315 41.8173 12.6405C41.8592 12.6447 41.9012 12.6508 41.944 12.6571L41.944 12.6571C41.9931 12.6643 42.0435 12.6716 42.0964 12.6764V14.6355C41.9523 14.6085 41.8083 14.5905 41.6552 14.5726C41.5022 14.5546 41.3582 14.5456 41.2141 14.5456C40.872 14.5456 40.5479 14.6175 40.2418 14.7523C39.9357 14.8871 39.6747 15.0938 39.4496 15.3544C39.2245 15.624 39.0445 15.9475 38.9094 16.3429C38.7744 16.7383 38.7114 17.1876 38.7114 17.6998V22.0851H36.6768V12.8741H36.6858ZM49.4515 22.0941H51.4501V12.8831H49.4155V18.23C49.4155 18.5894 49.3795 18.9219 49.2985 19.2275C49.2175 19.533 49.0914 19.8026 48.9114 20.0183C48.7403 20.2429 48.5063 20.4137 48.2182 20.5485C47.9301 20.6833 47.579 20.7462 47.1469 20.7462C46.5887 20.7462 46.1476 20.5754 45.8415 20.2429C45.5264 19.9104 45.3733 19.3353 45.3733 18.5265V12.8741H43.3387V18.7242C43.3387 19.9374 43.6088 20.845 44.149 21.4471C44.6891 22.0492 45.5714 22.3457 46.7868 22.3457C47.2999 22.3457 47.8041 22.202 48.2992 21.9234C48.7943 21.6448 49.1635 21.2764 49.4155 20.8091H49.4515V22.0941ZM54.9161 19.1376C54.9792 19.7307 55.2042 20.1441 55.5913 20.3867C55.9875 20.6204 56.4556 20.7462 57.0048 20.7462C57.1938 20.7462 57.4099 20.7282 57.6529 20.7012C57.896 20.6743 58.1301 20.6114 58.3371 20.5305C58.5532 20.4496 58.7243 20.3238 58.8683 20.1621C59.0033 20.0003 59.0664 19.7936 59.0574 19.533C59.0484 19.2724 58.9493 19.0567 58.7693 18.895C58.5892 18.7242 58.3642 18.5984 58.0851 18.4906C57.806 18.3917 57.4909 18.3019 57.1308 18.23C56.8358 18.1711 56.5408 18.1062 56.2409 18.0402L56.2409 18.0402L56.2409 18.0402L56.2408 18.0402L56.2408 18.0402L56.2408 18.0401L56.2408 18.0401L56.2408 18.0401L56.2408 18.0401L56.2406 18.0401L56.0415 17.9963C55.6634 17.9155 55.2943 17.8076 54.9431 17.6908C54.592 17.574 54.277 17.4122 53.9979 17.2055C53.7188 17.0078 53.4937 16.7472 53.3317 16.4327C53.1606 16.1182 53.0796 15.7318 53.0796 15.2645C53.0796 14.7613 53.2056 14.3479 53.4487 14.0064C53.6918 13.6649 54.0069 13.3953 54.376 13.1887C54.7541 12.982 55.1682 12.8382 55.6274 12.7483C56.0865 12.6674 56.5276 12.6225 56.9417 12.6225C57.4189 12.6225 57.878 12.6764 58.3101 12.7753C58.7423 12.8741 59.1384 13.0359 59.4895 13.2695C59.8406 13.4942 60.1287 13.7907 60.3627 14.1502C60.5968 14.5096 60.7409 14.95 60.8039 15.4622H58.6792C58.5802 14.9769 58.3642 14.6444 58.0131 14.4827C57.662 14.3119 57.2568 14.2311 56.8067 14.2311C56.6627 14.2311 56.4916 14.2401 56.2935 14.267C56.0955 14.294 55.9154 14.3389 55.7354 14.4018C55.5643 14.4647 55.4203 14.5636 55.2943 14.6894C55.1772 14.8152 55.1142 14.9769 55.1142 15.1836C55.1142 15.4352 55.2042 15.6329 55.3753 15.7857C55.5463 15.9385 55.7714 16.0643 56.0505 16.1721C56.3296 16.271 56.6447 16.3608 57.0048 16.4327C57.2872 16.4891 57.5751 16.551 57.8686 16.6141L57.8688 16.6141L57.869 16.6142L58.1121 16.6664C58.4812 16.7472 58.8413 16.8551 59.2014 16.9719C59.5615 17.0887 59.8766 17.2505 60.1557 17.4572C60.4348 17.6639 60.6598 17.9155 60.8309 18.221C61.0019 18.5265 61.092 18.913 61.092 19.3623C61.092 19.9104 60.9659 20.3687 60.7138 20.7552C60.4618 21.1326 60.1377 21.4471 59.7416 21.6807C59.3454 21.9144 58.8953 22.0941 58.4092 22.202C57.923 22.3098 57.4369 22.3637 56.9597 22.3637C56.3746 22.3637 55.8344 22.3008 55.3393 22.166C54.8441 22.0312 54.412 21.8335 54.0519 21.5729C53.6918 21.3033 53.4037 20.9708 53.1966 20.5754C52.9896 20.18 52.8815 19.7038 52.8635 19.1556H54.9161V19.1376ZM63.1716 12.8741H61.6501V14.4108H63.1896V19.8475C63.1986 20.225 63.2436 20.5664 63.3066 20.863C63.3786 21.1595 63.4957 21.4022 63.6847 21.5999C63.8648 21.7976 64.1259 21.9503 64.4499 22.0492C64.774 22.148 65.2062 22.202 65.7463 22.202C65.9714 22.202 66.1875 22.193 66.4035 22.166C66.5166 22.1513 66.6351 22.1392 66.756 22.1269C66.8565 22.1167 66.9586 22.1064 67.0607 22.0941V20.5215C66.9167 20.5575 66.7726 20.5754 66.6286 20.5844C66.4845 20.5934 66.3405 20.5934 66.1965 20.5934C65.9624 20.5934 65.7913 20.5664 65.6563 20.5125C65.5213 20.4586 65.4222 20.3777 65.3592 20.2699C65.2962 20.1621 65.2512 20.0273 65.2332 19.8745C65.2152 19.7127 65.2062 19.533 65.2062 19.3173V14.3928H67.0427V12.8741H65.2062V10.1063H63.1716V12.8741ZM68.4831 12.8741H70.4097V14.1232H70.4457C70.7338 13.5841 71.1299 13.2066 71.6431 12.973C72.1562 12.7393 72.7054 12.6225 73.3086 12.6225C74.0378 12.6225 74.6679 12.7483 75.2081 13.0089C75.7483 13.2605 76.1984 13.611 76.5585 14.0603C76.9186 14.5096 77.1797 15.0309 77.3597 15.624C77.5398 16.2171 77.6298 16.8551 77.6298 17.5291C77.6298 18.1491 77.5488 18.7512 77.3867 19.3263C77.2247 19.9104 76.9816 20.4227 76.6575 20.872C76.3334 21.3213 75.9193 21.6718 75.4152 21.9414C74.911 22.2109 74.3259 22.3457 73.6416 22.3457C73.3446 22.3457 73.0475 22.3188 72.7504 22.2649C72.4533 22.2109 72.1652 22.1211 71.8951 22.0043C71.6251 21.8874 71.364 21.7347 71.1389 21.546C70.9048 21.3572 70.7158 21.1416 70.5537 20.8989H70.5177V25.4999H68.4831V12.8741ZM75.4332 16.28C75.5412 16.6754 75.5952 17.0797 75.5952 17.4931C75.5952 17.8975 75.5502 18.2929 75.4692 18.6793C75.3792 19.0657 75.2261 19.4072 75.0191 19.7127C74.812 20.0093 74.5509 20.2609 74.2268 20.4496C73.9027 20.6383 73.5156 20.7372 73.0475 20.7372C72.6334 20.7372 72.2642 20.6563 71.9492 20.4856C71.6341 20.3238 71.364 20.0992 71.1389 19.8116C70.9048 19.524 70.7428 19.1825 70.6258 18.7871C70.5087 18.3917 70.4547 17.9604 70.4547 17.4931C70.4547 16.5046 70.6708 15.7138 71.1029 15.1207C71.535 14.5276 72.1832 14.2311 73.0385 14.2311C73.4526 14.2311 73.8217 14.3299 74.1458 14.5096C74.4609 14.6894 74.731 14.932 74.947 15.2375C75.1631 15.5431 75.3251 15.8846 75.4332 16.28ZM79.1873 9.36047H81.2219V11.2836H79.1873V9.36047ZM81.2219 12.8741H79.1873V22.0941H81.2219V12.8741ZM83.0404 9.36047H85.075V22.0941H83.0404V9.36047ZM89.3423 21.9773C89.9184 22.2199 90.5756 22.3457 91.3138 22.3457C92.0521 22.3457 92.7093 22.2199 93.2854 21.9773C93.8616 21.7347 94.3567 21.4022 94.7529 20.9708C95.149 20.5395 95.4551 20.0273 95.6621 19.4342C95.8692 18.8411 95.9772 18.1851 95.9772 17.4751C95.9772 16.7742 95.8692 16.1272 95.6621 15.5341C95.4551 14.941 95.149 14.4288 94.7529 13.9974C94.3477 13.5751 93.8616 13.2336 93.2854 12.991C92.7093 12.7483 92.0521 12.6225 91.3138 12.6225C90.5756 12.6225 89.9184 12.7483 89.3423 12.991C88.7661 13.2336 88.271 13.5661 87.8748 13.9974C87.4787 14.4288 87.1726 14.941 86.9656 15.5341C86.7585 16.1272 86.6505 16.7742 86.6505 17.4751C86.6505 18.1851 86.7585 18.8411 86.9656 19.4342C87.1726 20.0273 87.4787 20.5395 87.8748 20.9708C88.28 21.3932 88.7661 21.7347 89.3423 21.9773ZM91.3139 20.7372C91.764 20.7372 92.1601 20.6383 92.4932 20.4496C92.8263 20.2609 93.0964 20.0093 93.3124 19.7038C93.5285 19.3982 93.6815 19.0477 93.7896 18.6613C93.8886 18.2749 93.9426 17.8795 93.9426 17.4751C93.9426 17.0797 93.8886 16.6933 93.7896 16.2979C93.6905 15.9025 93.5285 15.561 93.3124 15.2555C93.0964 14.95 92.8263 14.7073 92.4932 14.5186C92.1601 14.3299 91.764 14.2311 91.3139 14.2311C90.8637 14.2311 90.4676 14.3299 90.1345 14.5186C89.8014 14.7073 89.5313 14.959 89.3153 15.2555C89.0992 15.561 88.9462 15.9025 88.8381 16.2979C88.7391 16.6933 88.6851 17.0797 88.6851 17.4751C88.6851 17.8795 88.7391 18.2749 88.8381 18.6613C88.9371 19.0477 89.0992 19.3982 89.3153 19.7038C89.5313 20.0093 89.8014 20.2609 90.1345 20.4496C90.4676 20.6473 90.8637 20.7372 91.3139 20.7372ZM98.1108 12.8741H96.5894V14.4108H98.1289V19.8475C98.1379 20.225 98.1829 20.5664 98.2459 20.863C98.3179 21.1595 98.4349 21.4022 98.624 21.5999C98.8041 21.7976 99.0651 21.9503 99.3892 22.0492C99.7133 22.148 100.145 22.202 100.686 22.202C100.911 22.202 101.127 22.193 101.343 22.166C101.456 22.1513 101.574 22.1392 101.695 22.1269C101.796 22.1167 101.898 22.1064 102 22.0941V20.5215C101.856 20.5575 101.712 20.5754 101.568 20.5844C101.424 20.5934 101.28 20.5934 101.136 20.5934C100.902 20.5934 100.731 20.5664 100.596 20.5125C100.461 20.4586 100.362 20.3777 100.298 20.2699C100.235 20.1621 100.19 20.0273 100.172 19.8745C100.154 19.7127 100.145 19.533 100.145 19.3173V14.3928H101.982V12.8741H100.145V10.1063H98.1108V12.8741Z" fill="white"/>
<path d="M24.4242 9.36053H15.0974L12.2166 0.5L9.32674 9.36053L0 9.35155L7.55322 14.8332L4.66337 23.6848L12.2166 18.2121L19.7608 23.6848L16.88 14.8332L24.4242 9.36053Z" fill="#00B67A"/>
<path d="M17.5281 16.8372L16.8799 14.8333L12.2166 18.2121L17.5281 16.8372Z" fill="#005128"/>
</svg>
